# xmcd
#
# Track frame offsets:
#	150
#	13856
#	35299
#	50315
#	79338
#
# Disc length: 1460 seconds
#
# Revision: 1
# Processed by: cddbd v1.5PL3 Copyright (c) Steve Scherf et al.
# Submitted via: audiograbber 1.83.01
#
DISCID=3405b205
DTITLE=Norah Jones - Come away with me (Bonus CD)
DYEAR=2002
DGENRE=Pop
TTITLE0=Ruler of my heart
TTITLE1=Cold cold heart
TTITLE2=I'll be your baby tonight
TTITLE3=Peace
TTITLE4=Come away with me (Video Clip)
EXTD=
EXTT0=
EXTT1=
EXTT2=
EXTT3=
EXTT4=
PLAYORDER=
